<?xml version="1.0" encoding="UTF-8" standalone="no"?>
<svg xmlns:dc="http://purl.org/dc/elements/1.1/" xmlns:cc="http://creativecommons.org/ns#" xmlns:rdf="http://www.w3.org/1999/02/22-rdf-syntax-ns#" xmlns:svg="http://www.w3.org/2000/svg" xmlns="http://www.w3.org/2000/svg" xmlns:sodipodi="http://sodipodi.sourceforge.net/DTD/sodipodi-0.dtd" xmlns:inkscape="http://www.inkscape.org/namespaces/inkscape" width="12pt" height="12pt" viewBox="0 0 12 12" version="1.1" id="svg7" sodipodi:docname="Natural satellite.svg" inkscape:version="0.92.5 (2060ec1f9f, 2020-04-08)">
  <metadata id="metadata13">
    <rdf:RDF>
      <cc:Work rdf:about="">
        <dc:format>image/svg+xml</dc:format>
        <dc:type rdf:resource="http://purl.org/dc/dcmitype/StillImage"/>
      </cc:Work>
    </rdf:RDF>
  </metadata>
  <defs id="defs11"/>
  <sodipodi:namedview pagecolor="#ffffff" bordercolor="#666666" borderopacity="1" objecttolerance="10" gridtolerance="10" guidetolerance="10" inkscape:pageopacity="0" inkscape:pageshadow="2" inkscape:window-width="1920" inkscape:window-height="1015" id="namedview9" showgrid="false" inkscape:zoom="59" inkscape:cx="9.4067797" inkscape:cy="10.742584" inkscape:window-x="0" inkscape:window-y="0" inkscape:window-maximized="1" inkscape:current-layer="svg7"/>
  <path inkscape:connector-curvature="0" id="path2" d="M 7.5,6 C 7.5,5.1717392 6.8282608,4.5 6,4.5 5.1717392,4.5 4.5,5.1717392 4.5,6 4.5,6.8282608 5.1717392,7.5 6,7.5 6.8282608,7.5 7.5,6.8282608 7.5,6" style="fill:#000000;fill-opacity:1;fill-rule:nonzero;stroke:none;stroke-width:1.66956425"/>
  <path inkscape:connector-curvature="0" id="path4" d="M 11,6 C 11,3.2382812 8.7617188,1 6,1 3.2382812,1 1,3.2382812 1,6 c 0,2.7617188 2.2382812,5 5,5 2.7617188,0 5,-2.2382812 5,-5 z m 0,0" style="fill:none;stroke:#000000;stroke-width:0.6;stroke-linecap:butt;stroke-linejoin:miter;stroke-miterlimit:10;stroke-opacity:1;stroke-dasharray:none"/>
  <path inkscape:connector-curvature="0" id="path2-3" d="m 10.52367,2.5357819 c 0,-0.552243 -0.447881,-1.0001251 -1.0001256,-1.0001251 -0.5522429,0 -1.0001249,0.4478821 -1.0001249,1.0001251 0,0.5522429 0.447882,1.0001249 1.0001249,1.0001249 0.5522446,0 1.0001256,-0.447882 1.0001256,-1.0001249" style="fill:#000000;fill-opacity:1;fill-rule:nonzero;stroke:none;stroke-width:1.11318195"/>
</svg>